<?xml version="1.0" standalone="no"?>
<!DOCTYPE svg PUBLIC "-//W3C//DTD SVG 20010904//EN"
 "http://www.w3.org/TR/2001/REC-SVG-20010904/DTD/svg10.dtd">
<svg version="1.0" xmlns="http://www.w3.org/2000/svg"
 width="614.000000pt" height="200.000000pt" viewBox="0 0 614.000000 200.000000"
 preserveAspectRatio="xMidYMid meet">

<g transform="translate(0.000000,200.000000) scale(0.100000,-0.100000)"
fill="#000000" stroke="none">
<path d="M436 1567 c-11 -8 -17 -23 -14 -38 3 -21 8 -24 55 -27 37 -2 56 -8
62 -20 6 -12 -15 -114 -70 -336 -43 -176 -79 -340 -79 -366 0 -90 36 -151 115
-193 34 -19 56 -22 150 -22 126 0 179 15 266 75 92 62 105 94 203 487 48 191
92 353 98 360 6 7 32 13 59 13 51 0 79 18 79 50 0 10 -7 21 -16 24 -27 10
-284 7 -305 -4 -23 -13 -25 -55 -3 -64 9 -3 33 -6 55 -6 35 0 39 -3 39 -25 0
-43 -150 -627 -175 -682 -19 -42 -33 -57 -75 -81 -61 -35 -164 -57 -217 -47
-100 18 -140 68 -128 159 5 41 95 417 146 608 14 53 33 68 85 68 69 0 111 33
83 66 -16 20 -387 20 -413 1z"/>
<path d="M2308 1554 c-30 -16 -58 -61 -58 -94 0 -84 103 -102 165 -29 30 37
32 77 4 113 -24 30 -67 34 -111 10z"/>
<path d="M3282 1535 c-41 -22 -46 -22 -100 -9 -103 25 -146 27 -224 10 -259
-58 -458 -353 -458 -680 0 -107 20 -163 81 -230 68 -75 129 -100 239 -100 144
1 259 62 366 198 72 91 84 120 61 144 -15 14 -25 8 -114 -79 -117 -114 -164
-139 -254 -139 -76 0 -137 25 -167 67 -75 105 -64 297 28 489 55 115 104 173
181 214 57 31 72 35 141 35 77 0 78 0 118 -40 23 -23 51 -67 65 -100 26 -64
49 -79 79 -50 12 13 16 35 15 103 -1 48 -4 110 -7 139 l-7 51 -43 -23z"/>
<path d="M4296 1518 c-9 -12 -16 -28 -16 -35 0 -16 41 -33 81 -33 22 0 29 -5
29 -20 0 -42 -192 -786 -207 -802 -10 -12 -31 -18 -58 -18 -44 0 -65 -13 -65
-42 0 -30 43 -38 208 -38 128 0 162 3 180 16 33 23 26 58 -13 62 -59 5 -75 12
-75 32 0 32 190 783 202 797 6 7 25 13 44 13 47 0 81 16 89 41 14 43 -13 49
-206 49 -172 0 -178 -1 -193 -22z"/>
<path d="M4747 1523 c-36 -41 -16 -70 53 -75 37 -2 46 -7 48 -24 2 -11 -40
-191 -92 -399 -68 -272 -100 -383 -112 -392 -10 -7 -37 -13 -61 -13 -71 0
-113 -64 -53 -81 30 -9 337 -11 366 -3 12 3 27 17 33 31 17 37 -1 53 -60 53
-43 0 -49 3 -49 21 0 17 32 155 71 302 l10 37 112 0 c184 0 285 31 372 111 58
53 86 123 92 224 5 106 -16 146 -101 190 l-60 30 -275 3 c-262 4 -277 3 -294
-15z m502 -88 c60 -30 79 -139 40 -225 -42 -93 -108 -136 -226 -150 -60 -6
-144 -4 -143 4 0 0 20 80 45 176 33 133 49 179 66 192 28 23 176 25 218 3z"/>
<path d="M3462 1518 c-33 -33 2 -68 69 -68 22 0 29 -5 29 -20 0 -31 -178 -740
-195 -777 -12 -27 -20 -33 -47 -33 -49 0 -83 -21 -83 -50 l0 -25 376 -3 376
-2 47 133 c54 155 57 177 21 177 -19 0 -32 -12 -58 -53 -54 -84 -98 -128 -152
-153 -44 -21 -65 -24 -178 -24 -111 0 -128 2 -134 17 -8 19 172 757 193 789 9
16 26 23 64 26 54 5 72 19 68 53 -3 19 -12 20 -193 23 -140 2 -194 -1 -203
-10z"/>
<path d="M1519 1279 c-36 -25 -104 -49 -143 -49 -39 0 -76 -25 -76 -50 0 -15
9 -21 40 -26 22 -4 42 -10 45 -14 6 -9 -101 -453 -115 -480 -7 -13 -21 -20
-40 -20 -32 0 -74 -33 -67 -53 2 -8 50 -13 161 -15 155 -2 157 -2 165 20 11
30 1 40 -48 47 l-40 6 54 212 c29 116 59 221 68 233 36 51 158 120 215 120 46
0 82 -38 82 -85 0 -35 -91 -418 -110 -462 -7 -17 -18 -23 -40 -23 -45 0 -70
-17 -70 -45 l0 -25 160 0 160 0 12 26 c15 32 0 44 -55 44 -32 0 -37 3 -33 18
42 141 99 399 99 452 2 119 -53 170 -180 170 -74 0 -141 -25 -208 -76 -40 -30
-41 -26 -19 40 9 26 15 49 13 51 -2 2 -16 -5 -30 -16z"/>
<path d="M2300 1258 c-38 -18 -89 -33 -123 -36 -43 -4 -60 -10 -68 -24 -15
-27 6 -48 46 -48 18 0 37 -6 43 -13 13 -15 -100 -476 -120 -488 -7 -5 -30 -9
-51 -9 -55 0 -77 -15 -77 -51 l0 -31 183 4 c192 3 217 9 217 48 0 23 -20 30
-81 30 -27 0 -49 2 -49 5 0 6 148 600 156 628 7 22 2 21 -76 -15z"/>
</g>
</svg>
